<svg width="500" height="400" xmlns="http://www.w3.org/2000/svg">
  <defs>
    <linearGradient id="skyGradient" x1="0%" y1="0%" x2="0%" y2="100%">
      <stop offset="0%" stop-color="#3366cc" stop-opacity="0.2"/>
      <stop offset="100%" stop-color="#33cc99" stop-opacity="0.1"/>
    </linearGradient>
  </defs>

  <!-- Fondo -->
  <rect width="500" height="400" fill="url(#skyGradient)" rx="10" />
  
  <!-- Suelo -->
  <rect x="0" y="320" width="500" height="80" fill="#f2f2f2" rx="5" />
  
  <!-- Edificios de ciudad inteligente -->
  <!-- Edificio Central -->
  <g>
    <rect x="220" y="120" width="60" height="200" fill="#3366cc" />
    <rect x="225" y="130" width="50" height="190" fill="#f8f9fa" />
    <rect x="235" y="140" width="10" height="10" fill="#3366cc" opacity="0.8" />
    <rect x="255" y="140" width="10" height="10" fill="#3366cc" opacity="0.8" />
    <rect x="235" y="160" width="10" height="10" fill="#3366cc" opacity="0.8" />
    <rect x="255" y="160" width="10" height="10" fill="#3366cc" opacity="0.8" />
    <rect x="235" y="180" width="10" height="10" fill="#3366cc" opacity="0.8" />
    <rect x="255" y="180" width="10" height="10" fill="#3366cc" opacity="0.8" />
    <rect x="235" y="200" width="10" height="10" fill="#3366cc" opacity="0.8" />
    <rect x="255" y="200" width="10" height="10" fill="#3366cc" opacity="0.8" />
    <rect x="235" y="220" width="10" height="10" fill="#3366cc" opacity="0.8" />
    <rect x="255" y="220" width="10" height="10" fill="#3366cc" opacity="0.8" />
    <rect x="235" y="240" width="10" height="10" fill="#33cc99" opacity="0.8" />
    <rect x="255" y="240" width="10" height="10" fill="#33cc99" opacity="0.8" />
    <rect x="235" y="260" width="10" height="10" fill="#33cc99" opacity="0.8" />
    <rect x="255" y="260" width="10" height="10" fill="#33cc99" opacity="0.8" />
    <rect x="235" y="280" width="10" height="10" fill="#33cc99" opacity="0.8" />
    <rect x="255" y="280" width="10" height="10" fill="#33cc99" opacity="0.8" />
    <rect x="235" y="300" width="30" height="20" fill="#3366cc" />
  </g>
  
  <!-- Edificio izquierda -->
  <g>
    <rect x="150" y="170" width="50" height="150" fill="#33cc99" />
    <rect x="155" y="180" width="40" height="140" fill="#f8f9fa" />
    <rect x="160" y="190" width="8" height="8" fill="#33cc99" opacity="0.8" />
    <rect x="175" y="190" width="8" height="8" fill="#33cc99" opacity="0.8" />
    <rect x="160" y="205" width="8" height="8" fill="#33cc99" opacity="0.8" />
    <rect x="175" y="205" width="8" height="8" fill="#33cc99" opacity="0.8" />
    <rect x="160" y="220" width="8" height="8" fill="#33cc99" opacity="0.8" />
    <rect x="175" y="220" width="8" height="8" fill="#33cc99" opacity="0.8" />
    <rect x="160" y="235" width="8" height="8" fill="#33cc99" opacity="0.8" />
    <rect x="175" y="235" width="8" height="8" fill="#33cc99" opacity="0.8" />
    <rect x="160" y="250" width="8" height="8" fill="#3366cc" opacity="0.8" />
    <rect x="175" y="250" width="8" height="8" fill="#3366cc" opacity="0.8" />
    <rect x="160" y="265" width="8" height="8" fill="#3366cc" opacity="0.8" />
    <rect x="175" y="265" width="8" height="8" fill="#3366cc" opacity="0.8" />
    <rect x="160" y="280" width="8" height="8" fill="#3366cc" opacity="0.8" />
    <rect x="175" y="280" width="8" height="8" fill="#3366cc" opacity="0.8" />
    <rect x="160" y="300" width="23" height="20" fill="#33cc99" />
  </g>
  
  <!-- Edificio derecha -->
  <g>
    <rect x="300" y="200" width="55" height="120" fill="#3366cc" />
    <rect x="305" y="210" width="45" height="110" fill="#f8f9fa" />
    <rect x="310" y="220" width="9" height="9" fill="#3366cc" opacity="0.8" />
    <rect x="330" y="220" width="9" height="9" fill="#3366cc" opacity="0.8" />
    <rect x="310" y="235" width="9" height="9" fill="#33cc99" opacity="0.8" />
    <rect x="330" y="235" width="9" height="9" fill="#33cc99" opacity="0.8" />
    <rect x="310" y="250" width="9" height="9" fill="#33cc99" opacity="0.8" />
    <rect x="330" y="250" width="9" height="9" fill="#33cc99" opacity="0.8" />
    <rect x="310" y="265" width="9" height="9" fill="#3366cc" opacity="0.8" />
    <rect x="330" y="265" width="9" height="9" fill="#3366cc" opacity="0.8" />
    <rect x="310" y="280" width="9" height="9" fill="#3366cc" opacity="0.8" />
    <rect x="330" y="280" width="9" height="9" fill="#3366cc" opacity="0.8" />
    <rect x="315" y="300" width="25" height="20" fill="#33cc99" />
  </g>
  
  <!-- Edificio adicional izquierda -->
  <g>
    <rect x="80" y="230" width="45" height="90" fill="#3366cc" />
    <rect x="85" y="240" width="35" height="80" fill="#f8f9fa" />
    <rect x="90" y="250" width="7" height="7" fill="#3366cc" opacity="0.8" />
    <rect x="107" y="250" width="7" height="7" fill="#3366cc" opacity="0.8" />
    <rect x="90" y="265" width="7" height="7" fill="#33cc99" opacity="0.8" />
    <rect x="107" y="265" width="7" height="7" fill="#33cc99" opacity="0.8" />
    <rect x="90" y="280" width="7" height="7" fill="#3366cc" opacity="0.8" />
    <rect x="107" y="280" width="7" height="7" fill="#3366cc" opacity="0.8" />
    <rect x="90" y="295" width="7" height="7" fill="#33cc99" opacity="0.8" />
    <rect x="107" y="295" width="7" height="7" fill="#33cc99" opacity="0.8" />
    <rect x="90" y="310" width="25" height="10" fill="#33cc99" />
  </g>
  
  <!-- Edificio adicional derecha -->
  <g>
    <rect x="380" y="230" width="45" height="90" fill="#33cc99" />
    <rect x="385" y="240" width="35" height="80" fill="#f8f9fa" />
    <rect x="390" y="250" width="7" height="7" fill="#33cc99" opacity="0.8" />
    <rect x="407" y="250" width="7" height="7" fill="#33cc99" opacity="0.8" />
    <rect x="390" y="265" width="7" height="7" fill="#3366cc" opacity="0.8" />
    <rect x="407" y="265" width="7" height="7" fill="#3366cc" opacity="0.8" />
    <rect x="390" y="280" width="7" height="7" fill="#33cc99" opacity="0.8" />
    <rect x="407" y="280" width="7" height="7" fill="#33cc99" opacity="0.8" />
    <rect x="390" y="295" width="7" height="7" fill="#3366cc" opacity="0.8" />
    <rect x="407" y="295" width="7" height="7" fill="#3366cc" opacity="0.8" />
    <rect x="395" y="310" width="20" height="10" fill="#3366cc" />
  </g>
  
  <!-- Calles -->
  <rect x="0" y="340" width="500" height="20" fill="#888" />
  <rect x="0" y="345" width="500" height="10" fill="#999" />
  <rect x="0" y="350" width="500" height="1" fill="#fff" stroke-dasharray="10 10" />
  <rect x="250" y="320" width="2" height="20" fill="#fff" />
  <rect x="270" y="320" width="2" height="20" fill="#fff" />
  <rect x="230" y="320" width="2" height="20" fill="#fff" />
  <rect x="210" y="320" width="2" height="20" fill="#fff" />
  <rect x="290" y="320" width="2" height="20" fill="#fff" />
  <rect x="310" y="320" width="2" height="20" fill="#fff" />
  <rect x="330" y="320" width="2" height="20" fill="#fff" />
  <rect x="190" y="320" width="2" height="20" fill="#fff" />
  <rect x="170" y="320" width="2" height="20" fill="#fff" />
  <rect x="150" y="320" width="2" height="20" fill="#fff" />
  <rect x="130" y="320" width="2" height="20" fill="#fff" />
  <rect x="350" y="320" width="2" height="20" fill="#fff" />
  <rect x="370" y="320" width="2" height="20" fill="#fff" />
  
  <!-- Semáforos inteligentes -->
  <g transform="translate(130, 300)">
    <rect x="0" y="0" width="5" height="20" fill="#555" />
    <rect x="-5" y="-10" width="15" height="10" fill="#444" rx="2" />
    <circle cx="2.5" cy="-5" r="3" fill="#33cc99" />
  </g>
  
  <g transform="translate(370, 300)">
    <rect x="0" y="0" width="5" height="20" fill="#555" />
    <rect x="-5" y="-10" width="15" height="10" fill="#444" rx="2" />
    <circle cx="2.5" cy="-5" r="3" fill="#33cc99" />
  </g>
  
  <!-- Vehículos -->
  <g transform="translate(180, 330)">
    <rect x="0" y="0" width="20" height="10" rx="3" fill="#3366cc" />
    <rect x="15" y="2" width="3" height="6" fill="#fff" opacity="0.7" />
    <rect x="2" y="2" width="3" height="6" fill="#888" opacity="0.7" />
  </g>
  
  <g transform="translate(260, 330)">
    <rect x="0" y="0" width="20" height="10" rx="3" fill="#33cc99" />
    <rect x="15" y="2" width="3" height="6" fill="#fff" opacity="0.7" />
    <rect x="2" y="2" width="3" height="6" fill="#888" opacity="0.7" />
  </g>
  
  <g transform="translate(310, 330)">
    <rect x="0" y="0" width="30" height="12" rx="3" fill="#ff6600" />
    <rect x="25" y="2" width="3" height="8" fill="#fff" opacity="0.7" />
    <rect x="2" y="2" width="3" height="8" fill="#888" opacity="0.7" />
  </g>
  
  <!-- Conexiones de red de ciudad inteligente -->
  <g>
    <circle cx="250" cy="120" r="10" fill="#3366cc" opacity="0.2" />
    <circle cx="250" cy="120" r="5" fill="#3366cc" opacity="0.8" />
    
    <path d="M250,120 C220,140 180,160 150,170" stroke="#3366cc" stroke-width="1" stroke-dasharray="3,2" fill="none" />
    <path d="M250,120 C270,150 300,180 300,200" stroke="#3366cc" stroke-width="1" stroke-dasharray="3,2" fill="none" />
    <path d="M250,120 C200,150 140,200 80,230" stroke="#3366cc" stroke-width="1" stroke-dasharray="3,2" fill="none" />
    <path d="M250,120 C300,150 350,200 380,230" stroke="#3366cc" stroke-width="1" stroke-dasharray="3,2" fill="none" />
    
    <circle cx="250" cy="75" r="18" fill="#33cc99" opacity="0.2" />
    <circle cx="250" cy="75" r="12" fill="#33cc99" opacity="0.1" />
    <circle cx="250" cy="75" r="6" fill="#33cc99" opacity="0.8" />
    
    <path d="M250,75 C250,90 250,105 250,120" stroke="#33cc99" stroke-width="1" stroke-dasharray="3,2" fill="none" />
    
    <text x="250" y="50" font-family="Arial" font-size="12" font-weight="bold" fill="#3366cc" text-anchor="middle">CENTRAL IA</text>
  </g>
  
  <!-- Radar/cobertura -->
  <circle cx="250" cy="200" r="130" fill="none" stroke="#3366cc" stroke-width="1" stroke-dasharray="5,3" />
  <circle cx="250" cy="200" r="100" fill="none" stroke="#33cc99" stroke-width="1" stroke-dasharray="5,3" />
  <circle cx="250" cy="200" r="70" fill="none" stroke="#ff6600" stroke-width="1" stroke-dasharray="5,3" />
</svg> 